<?xml version="1.0" standalone="no"?>
<!DOCTYPE svg PUBLIC "-//W3C//DTD SVG 20010904//EN"
 "http://www.w3.org/TR/2001/REC-SVG-20010904/DTD/svg10.dtd">
<svg version="1.0" xmlns="http://www.w3.org/2000/svg"
 width="253.000000pt" height="253.000000pt" viewBox="0 0 253.000000 253.000000"
 preserveAspectRatio="xMidYMid meet">
<metadata>
Created by potrace 1.14, written by Peter Selinger 2001-2017
</metadata>
<g transform="translate(0.000000,253.000000) scale(0.100000,-0.100000)"
fill="#000000" stroke="none">
<path d="M1110 2340 c-117 -32 -195 -76 -280 -160 -170 -167 -220 -391 -142
-635 52 -164 293 -524 445 -666 33 -31 28 -38 -30 -36 -22 1 -39 -2 -36 -6 3
-5 -8 -8 -23 -6 -16 1 -36 -1 -44 -4 -8 -3 -34 -11 -57 -17 -37 -9 -73 -32
-73 -47 0 -18 56 -44 117 -54 46 -8 70 -17 66 -23 -4 -6 2 -4 12 4 17 14 18
13 12 -4 -6 -16 -5 -17 8 -6 12 10 18 10 32 -1 10 -8 14 -9 10 -2 -5 8 0 11
13 10 11 -1 20 -6 20 -12 0 -6 3 -7 8 0 4 6 18 10 32 10 14 0 28 -4 32 -10 5
-7 8 -7 8 0 0 6 33 10 78 11 96 1 194 11 247 26 22 6 47 13 55 14 8 2 20 10
26 18 6 9 15 12 19 8 4 -4 3 3 -3 14 -18 35 -120 64 -267 77 l-29 2 63 70
c205 225 382 506 426 680 87 334 -105 660 -437 744 -99 25 -215 25 -308 1z"/>
<path d="M138 525 c-52 -28 -48 -81 8 -115 18 -12 34 -25 34 -30 0 -17 -19
-20 -44 -9 -29 14 -31 13 -40 -19 -6 -19 -2 -25 28 -37 70 -30 181 -11 205 33
16 30 0 62 -44 86 -49 28 -58 49 -19 45 55 -6 74 29 29 49 -36 16 -124 14
-157 -3z"/>
<path d="M1484 528 c-28 -13 -43 -47 -34 -74 4 -11 24 -32 44 -48 43 -32 39
-48 -7 -35 -46 13 -49 12 -45 -18 4 -39 40 -54 118 -51 78 4 119 28 120 70 0
27 -33 61 -71 73 -10 4 -19 13 -19 21 0 11 9 15 32 12 26 -2 33 1 36 16 2 11
-4 26 -14 33 -21 15 -129 16 -160 1z"/>
<path d="M1258 492 c-35 -25 -51 -62 -28 -62 6 0 10 -13 10 -29 0 -47 16 -78
47 -89 36 -12 114 -7 124 9 11 19 -2 41 -21 36 -27 -7 -43 8 -45 42 -2 28 1
31 27 31 39 0 40 37 1 42 -20 2 -28 9 -28 23 0 30 -43 29 -87 -3z"/>
<path d="M2296 501 c-10 -11 -27 -23 -37 -26 -23 -8 -25 -41 -3 -49 8 -3 12
-11 9 -17 -13 -20 5 -78 27 -90 21 -11 123 -17 132 -8 2 2 6 13 8 24 2 16 -3
21 -29 23 -20 2 -34 9 -34 18 -4 47 -3 49 24 52 19 2 27 9 27 22 0 13 -8 20
-27 22 -20 2 -28 9 -28 23 0 28 -45 32 -69 6z"/>
<path d="M804 469 c-52 -14 -71 -46 -65 -112 3 -45 123 -74 186 -45 27 12 31
47 4 39 -36 -11 -84 -6 -87 10 -2 13 4 16 30 14 70 -6 104 38 61 78 -22 19
-87 27 -129 16z m72 -40 c8 -14 -18 -31 -30 -19 -9 9 0 30 14 30 5 0 12 -5 16
-11z"/>
<path d="M1040 464 c-42 -18 -59 -41 -59 -79 0 -37 17 -61 53 -75 58 -22 156
-6 156 25 0 13 -8 15 -43 10 -33 -5 -46 -3 -56 9 -16 19 -18 18 38 21 49 2 72
23 64 56 -10 38 -96 57 -153 33z m80 -38 c0 -15 -24 -28 -34 -19 -7 7 13 33
25 33 5 0 9 -6 9 -14z"/>
<path d="M1855 472 c-11 -2 -26 -9 -32 -14 -9 -7 -13 -7 -13 1 0 7 -20 11 -50
11 l-50 0 0 -105 c0 -99 1 -106 21 -114 12 -4 31 -6 43 -5 11 1 24 3 29 3 4 1
7 11 7 24 0 29 15 53 24 38 4 -6 21 -11 37 -11 38 0 74 37 77 79 2 30 -21 90
-36 92 -4 0 -14 2 -22 3 -8 1 -24 0 -35 -2z m-2 -81 c6 -25 -17 -48 -29 -29
-12 18 -12 31 -1 45 12 16 23 9 30 -16z"/>
<path d="M2048 473 c-40 -6 -78 -50 -78 -88 0 -25 8 -40 31 -60 28 -23 39 -26
96 -24 73 2 107 22 116 66 14 73 -62 123 -165 106z"/>
<path d="M365 443 c3 -15 19 -53 33 -83 26 -52 29 -55 67 -58 38 -3 42 0 56
30 l16 33 17 -33 c14 -28 22 -32 56 -32 44 0 58 18 86 109 18 60 18 61 -10 61
-19 0 -27 -8 -36 -35 -6 -19 -15 -35 -20 -35 -5 0 -14 16 -20 35 -10 32 -15
35 -49 35 -33 0 -39 -4 -51 -35 -17 -44 -27 -44 -38 -2 -8 30 -11 32 -61 35
l-53 3 7 -28z"/>
</g>
</svg>
